<svg width="70" height="70" viewBox="0 0 70 70" fill="none" xmlns="http://www.w3.org/2000/svg">
<g filter="url(#filter0_d)">
<circle cx="34.7999" cy="21.7999" r="16.7999" fill="#F53838"/>
</g>
<path d="M34.8 5C25.5215 5 18 12.6854 18 22.166C18 31.6467 25.5215 39.332 34.8 39.332C44.0785 39.332 51.6 31.6467 51.6 22.166C51.6 12.6854 44.0785 5 34.8 5ZM38.7795 16.8624H36.2543C35.955 16.8624 35.6225 17.2648 35.6225 17.7994V19.6626H38.7813L38.3035 22.3198H35.6225V30.2966H32.6423V22.3198H29.9385V19.6626H32.6423V18.0998C32.6423 15.8575 34.1648 14.0354 36.2543 14.0354H38.7795V16.8624Z" fill="white"/>
<defs>
<filter id="filter0_d" x="0" y="0" width="69.5999" height="69.5999" filterUnits="userSpaceOnUse" color-interpolation-filters="sRGB">
<feFlood flood-opacity="0" result="BackgroundImageFix"/>
<feColorMatrix in="SourceAlpha" type="matrix" values="0 0 0 0 0 0 0 0 0 0 0 0 0 0 0 0 0 0 127 0"/>
<feOffset dy="13"/>
<feGaussianBlur stdDeviation="9"/>
<feColorMatrix type="matrix" values="0 0 0 0 0.0658854 0 0 0 0 0.0730469 0 0 0 0 0.1375 0 0 0 0.08 0"/>
<feBlend mode="normal" in2="BackgroundImageFix" result="effect1_dropShadow"/>
<feBlend mode="normal" in="SourceGraphic" in2="effect1_dropShadow" result="shape"/>
</filter>
</defs>
</svg>
