<svg width="70" height="71" viewBox="0 0 70 71" fill="none" xmlns="http://www.w3.org/2000/svg">
<g filter="url(#filter0_d)">
<circle cx="35" cy="22.3805" r="16.7999" fill="#F53838"/>
</g>
<path d="M40.25 22.6196C40.25 24.0424 39.6968 25.4068 38.7123 26.4128C37.7277 27.4188 36.3923 27.984 35 27.984C33.6076 27.984 32.2722 27.4188 31.2876 26.4128C30.3031 25.4068 29.75 24.0424 29.75 22.6196C29.75 22.3139 29.7815 22.0152 29.8357 21.7256H28V28.8727C28 29.3698 28.3937 29.7721 28.8802 29.7721H41.1215C41.3546 29.7717 41.5781 29.6767 41.7428 29.5081C41.9075 29.3394 42 29.1109 42 28.8727V21.7256H40.1642C40.2185 22.0152 40.25 22.3139 40.25 22.6196ZM35 26.1959C35.4597 26.1958 35.9149 26.1031 36.3396 25.9232C36.7643 25.7434 37.1502 25.4798 37.4752 25.1475C37.8002 24.8153 38.058 24.4209 38.2338 23.9868C38.4096 23.5528 38.5001 23.0876 38.5 22.6178C38.4998 22.1481 38.4092 21.6829 38.2331 21.249C38.0571 20.815 37.7991 20.4208 37.474 20.0887C37.1488 19.7566 36.7628 19.4932 36.338 19.3135C35.9132 19.1339 35.4579 19.0415 34.9982 19.0416C34.0697 19.0418 33.1793 19.4189 32.523 20.0899C31.8666 20.761 31.498 21.6709 31.4982 22.6196C31.4984 23.5683 31.8675 24.4781 32.5242 25.1488C33.1809 25.8195 34.0715 26.1961 35 26.1959ZM39.2 18.8646H41.2982C41.4376 18.8646 41.5713 18.8081 41.6701 18.7076C41.7688 18.607 41.8245 18.4706 41.825 18.3281V16.1842C41.825 16.0414 41.7695 15.9045 41.6707 15.8036C41.5719 15.7026 41.4379 15.6459 41.2982 15.6459H39.2C39.0603 15.6459 38.9263 15.7026 38.8275 15.8036C38.7287 15.9045 38.6732 16.0414 38.6732 16.1842V18.3281C38.675 18.6232 38.9112 18.8646 39.2 18.8646ZM35 5.45361C30.5443 5.45361 26.2712 7.26217 23.1206 10.4814C19.9699 13.7007 18.2 18.0669 18.2 22.6196C18.2 27.1723 19.9699 31.5386 23.1206 34.7578C26.2712 37.9771 30.5443 39.7856 35 39.7856C37.2062 39.7856 39.3908 39.3416 41.429 38.479C43.4673 37.6163 45.3193 36.3518 46.8794 34.7578C48.4394 33.1638 49.6769 31.2715 50.5211 29.1888C51.3654 27.1061 51.8 24.8739 51.8 22.6196C51.8 20.3654 51.3654 18.1332 50.5211 16.0505C49.6769 13.9678 48.4394 12.0754 46.8794 10.4814C45.3193 8.88741 43.4673 7.62297 41.429 6.7603C39.3908 5.89763 37.2062 5.45361 35 5.45361ZM43.75 29.5737C43.75 30.6662 42.875 31.5603 41.8057 31.5603H28.1942C27.125 31.5603 26.25 30.6662 26.25 29.5737V15.6656C26.25 14.5731 27.125 13.679 28.1942 13.679H41.8057C42.875 13.679 43.75 14.5731 43.75 15.6656V29.5737Z" fill="white"/>
<defs>
<filter id="filter0_d" x="0.200073" y="0.580566" width="69.5999" height="69.5999" filterUnits="userSpaceOnUse" color-interpolation-filters="sRGB">
<feFlood flood-opacity="0" result="BackgroundImageFix"/>
<feColorMatrix in="SourceAlpha" type="matrix" values="0 0 0 0 0 0 0 0 0 0 0 0 0 0 0 0 0 0 127 0"/>
<feOffset dy="13"/>
<feGaussianBlur stdDeviation="9"/>
<feColorMatrix type="matrix" values="0 0 0 0 0.0658854 0 0 0 0 0.0730469 0 0 0 0 0.1375 0 0 0 0.08 0"/>
<feBlend mode="normal" in2="BackgroundImageFix" result="effect1_dropShadow"/>
<feBlend mode="normal" in="SourceGraphic" in2="effect1_dropShadow" result="shape"/>
</filter>
</defs>
</svg>
