<svg width="70" height="70" viewBox="0 0 70 70" fill="none" xmlns="http://www.w3.org/2000/svg">
<g filter="url(#filter0_d)">
<circle cx="34.7999" cy="21.7999" r="16.7999" fill="#F53838"/>
</g>
<path d="M34.8 5C25.5215 5 18 12.6854 18 22.166C18 31.6467 25.5215 39.332 34.8 39.332C44.0785 39.332 51.6 31.6467 51.6 22.166C51.6 12.6854 44.0785 5 34.8 5ZM41.6338 19.0618C41.6408 19.2085 41.6425 19.3551 41.6425 19.4981C41.6425 23.9684 38.3158 29.12 32.2293 29.12C30.4308 29.1231 28.6697 28.5953 27.1578 27.6001C27.415 27.6323 27.6793 27.6448 27.947 27.6448C29.4975 27.6448 30.9238 27.1066 32.056 26.1982C31.366 26.1844 30.6974 25.9509 30.1434 25.5304C29.5895 25.1099 29.1777 24.5232 28.9655 23.8522C29.461 23.9485 29.9715 23.9283 30.4583 23.7932C29.7093 23.6385 29.0358 23.2238 28.552 22.6196C28.0681 22.0154 27.8037 21.2587 27.8035 20.478V20.4369C28.2498 20.689 28.7608 20.8428 29.3033 20.8607C28.6011 20.3831 28.1041 19.6495 27.9138 18.8099C27.7235 17.9703 27.8543 17.0882 28.2795 16.3439C29.1107 17.3881 30.1472 18.2424 31.322 18.8514C32.4968 19.4604 33.7836 19.8104 35.0993 19.879C34.932 19.1536 35.004 18.392 35.304 17.7127C35.6041 17.0334 36.1153 16.4744 36.7584 16.1226C37.4014 15.7708 38.1402 15.646 38.8598 15.7675C39.5795 15.889 40.2396 16.25 40.7378 16.7945C41.4783 16.6448 42.1885 16.3672 42.8378 15.9737C42.5909 16.7572 42.0742 17.4224 41.3835 17.8459C42.0395 17.7652 42.68 17.585 43.284 17.3113C42.8404 17.9906 42.2815 18.5834 41.6338 19.0618Z" fill="white"/>
<defs>
<filter id="filter0_d" x="0" y="0" width="69.5999" height="69.5999" filterUnits="userSpaceOnUse" color-interpolation-filters="sRGB">
<feFlood flood-opacity="0" result="BackgroundImageFix"/>
<feColorMatrix in="SourceAlpha" type="matrix" values="0 0 0 0 0 0 0 0 0 0 0 0 0 0 0 0 0 0 127 0"/>
<feOffset dy="13"/>
<feGaussianBlur stdDeviation="9"/>
<feColorMatrix type="matrix" values="0 0 0 0 0.0658854 0 0 0 0 0.0730469 0 0 0 0 0.1375 0 0 0 0.08 0"/>
<feBlend mode="normal" in2="BackgroundImageFix" result="effect1_dropShadow"/>
<feBlend mode="normal" in="SourceGraphic" in2="effect1_dropShadow" result="shape"/>
</filter>
</defs>
</svg>
